HIERARCHY
ROOT root
{
	OFFSET 0.000000 0.000000 0.000000
	CHANNELS 6 Xposition Yposition Zposition Zrotation Yrotation Xrotation
	JOINT lhip
	{
		OFFSET 0.058581 -0.082280 -0.017664
		CHANNELS 3 Zrotation Yrotation Xrotation
		JOINT lknee
		{
			OFFSET 0.043451 -0.386469 0.008037
			CHANNELS 3 Zrotation Yrotation Xrotation
			JOINT lankle
			{
				OFFSET -0.014790 -0.426874 -0.037428
				CHANNELS 3 Zrotation Yrotation Xrotation
				JOINT ltoe
				{
					OFFSET 0.041054 -0.060286 0.122042
					CHANNELS 3 Zrotation Yrotation Xrotation
					End Site
					{
						OFFSET 0.000000 0.000000 0.000000
					}
				}
			}
		}
	}
	JOINT rhip
	{
		OFFSET -0.060310 -0.090513 -0.013543
		CHANNELS 3 Zrotation Yrotation Xrotation
		JOINT rknee
		{
			OFFSET -0.043257 -0.383688 -0.004843
			CHANNELS 3 Zrotation Yrotation Xrotation
			JOINT rankle
			{
				OFFSET 0.019056 -0.420046 -0.034562
				CHANNELS 3 Zrotation Yrotation Xrotation
				JOINT rtoe
				{
					OFFSET -0.034840 -0.062106 0.130323
					CHANNELS 3 Zrotation Yrotation Xrotation
					End Site
					{
						OFFSET 0.000000 0.000000 0.000000
					}
				}
			}
		}
	}
	JOINT lowerback
	{
		OFFSET 0.004439 0.124404 -0.038385
		CHANNELS 3 Zrotation Yrotation Xrotation
		JOINT upperback
		{
			OFFSET 0.004488 0.137956 0.026820
			CHANNELS 3 Zrotation Yrotation Xrotation
			JOINT chest
			{
				OFFSET -0.002265 0.056032 0.002855
				CHANNELS 3 Zrotation Yrotation Xrotation
				JOINT lowerneck
				{
					OFFSET -0.013390 0.211636 -0.033468
					CHANNELS 3 Zrotation Yrotation Xrotation
					JOINT upperneck
					{
						OFFSET 0.010113 0.088937 0.050410
						CHANNELS 3 Zrotation Yrotation Xrotation
						End Site
						{
							OFFSET 0.000000 0.000000 0.000000
						}
					}
				}
				JOINT lclavicle
				{
					OFFSET 0.071702 0.114000 -0.018898
					CHANNELS 3 Zrotation Yrotation Xrotation
					JOINT lshoulder
					{
						OFFSET 0.122921 0.045205 -0.019046
						CHANNELS 3 Zrotation Yrotation Xrotation
						JOINT lelbow
						{
							OFFSET 0.255332 -0.015649 -0.022946
							CHANNELS 3 Zrotation Yrotation Xrotation
							JOINT lwrist
							{
								OFFSET 0.265709 0.012698 -0.007375
								CHANNELS 3 Zrotation Yrotation Xrotation
								End Site
								{
									OFFSET 0.000000 0.000000 0.000000
								}
							}
						}
					}
				}
				JOINT rclavicle
				{
					OFFSET -0.082954 0.112472 -0.023707
					CHANNELS 3 Zrotation Yrotation Xrotation
					JOINT rshoulder
					{
						OFFSET -0.113228 0.046853 -0.008472
						CHANNELS 3 Zrotation Yrotation Xrotation
						JOINT relbow
						{
							OFFSET -0.260127 -0.014369 -0.031269
							CHANNELS 3 Zrotation Yrotation Xrotation
							JOINT rwrist
							{
								OFFSET -0.269108 0.006794 -0.006027
								CHANNELS 3 Zrotation Yrotation Xrotation
								End Site
								{
									OFFSET 0.000000 0.000000 0.000000
								}
							}
						}
					}
				}
			}
		}
	}
}
MOTION
Frames: 11
Frame Time: 0.033333
2.313975 0.691393 0.992233 -73.885703 -0.193817 87.213715 -1.865095 -3.426617 3.231564 -0.027762 -15.180801 0.092906 0.430339 4.361924 -7.864936 0.000000 -0.000000 0.000000 1.240653 -3.966612 4.288923 -4.899548 -2.766896 4.071794 1.646688 -10.814889 -11.728652 0.000000 -0.000000 0.000000 -0.040187 3.685927 7.523538 -2.737898 0.121703 -0.250528 0.411368 2.288654 -2.435928 -2.210968 27.166491 -8.063076 -4.233542 25.335691 -7.004941 -28.268344 -9.099117 1.753795 -50.650738 -7.009423 12.682948 -1.635653 -17.771697 16.343861 4.718433 -9.491291 -0.409322 25.253261 10.031354 9.881678 58.163079 4.741415 19.934722 -1.450631 25.328120 16.521690 -3.388939 5.307635 2.781224 
2.315128 0.691306 0.992068 -74.365740 -0.282572 86.866620 -2.127709 -3.212599 3.694088 0.158566 -14.915810 -0.041990 0.080613 4.494047 -8.004612 0.000000 -0.000000 0.000000 1.197287 -3.403547 4.442876 -5.073729 -2.958448 4.442895 1.871316 -10.676476 -11.977064 0.000000 -0.000000 0.000000 0.302915 3.578422 8.872028 -3.235726 0.411504 -1.345126 0.181285 2.346442 -2.234585 -2.032413 27.433941 -8.720576 -3.928706 25.439650 -6.350173 -28.880911 -9.246062 2.092722 -49.929795 -6.456487 12.355703 -1.840020 -16.701696 15.705083 9.961975 -14.103670 2.077558 25.174882 10.242290 9.705013 58.529439 4.716379 19.913080 -0.931461 24.692434 16.227691 -7.371498 7.354366 2.589477 
2.315297 0.691288 0.991791 -74.337119 -0.289902 87.110741 -2.107149 -3.377341 3.451419 0.038539 -14.963663 -0.035748 0.349304 4.577803 -7.844799 0.000000 -0.000000 0.000000 1.188082 -3.496369 4.066700 -5.098265 -2.939194 4.657512 1.620321 -10.725877 -11.933177 0.000000 -0.000000 0.000000 0.346881 3.500426 8.500908 -3.258470 0.402703 -1.044030 0.195941 2.335323 -2.317278 -2.307080 27.130900 -8.555503 -4.005985 25.553407 -6.700338 -28.640524 -9.064829 1.929803 -50.356584 -6.322306 12.054839 -1.888670 -18.563206 14.272047 6.195830 -9.715721 0.705456 24.933499 10.341099 9.698499 58.838694 4.520551 19.987038 -1.572973 25.505121 16.013356 -4.209699 5.490108 2.930710 
2.314932 0.691437 0.991735 -74.449143 -0.305008 87.058116 -2.099493 -3.225695 3.655239 0.051930 -14.948507 -0.241184 0.186479 4.509456 -7.827816 0.000000 -0.000000 0.000000 1.229436 -3.476816 4.231479 -5.193166 -2.820530 4.494475 1.746441 -10.686477 -11.906544 0.000000 -0.000000 0.000000 0.254119 3.460352 8.617431 -3.188439 0.402858 -0.951096 0.204949 2.362518 -2.344906 -2.281608 27.197945 -8.742378 -4.123614 25.494898 -6.563094 -28.590643 -8.899779 1.956487 -50.484618 -6.127807 12.174438 -1.904010 -17.872042 15.071086 6.698142 -10.860653 1.316811 24.850260 10.302783 9.597807 58.953121 4.733913 20.013714 -1.452566 25.177089 15.887709 -4.814232 5.797618 2.685973 
2.315125 0.691096 0.991260 -74.469538 -0.500250 87.172390 -2.439018 -3.218424 3.585948 0.247484 -15.112857 -0.377671 0.286962 4.754598 -7.704193 0.000000 -0.000000 0.000000 1.007791 -3.237040 4.047960 -5.220511 -2.820359 4.623514 1.682386 -10.916293 -11.910747 0.000000 -0.000000 0.000000 0.146723 3.380839 8.645500 -3.254365 0.470037 -1.184092 0.199347 2.349874 -2.193244 -2.345209 27.125587 -8.697493 -4.163110 25.586649 -6.568170 -28.539695 -8.827405 1.819458 -50.677788 -6.079039 12.241733 -2.130631 -17.536517 15.337195 7.981982 -10.115871 2.147208 24.713936 10.187837 9.470222 59.058565 4.727651 20.078497 -1.218549 25.149057 15.938037 -5.247215 5.444827 2.656340 
2.314292 0.690642 0.991558 -74.387128 -0.439331 87.129925 -2.290242 -3.162175 3.578687 0.054115 -15.148425 -0.142391 0.180600 4.590309 -7.820122 0.000000 -0.000000 0.000000 1.007595 -3.424660 4.244864 -5.184694 -2.807043 4.469315 1.810708 -10.874985 -11.814048 0.000000 -0.000000 0.000000 0.107701 3.439475 8.505940 -3.133878 0.308039 -1.016585 0.257104 2.410941 -2.074141 -2.447495 27.058500 -8.682760 -4.224311 25.518652 -6.734248 -28.622777 -8.856962 1.891806 -50.631772 -6.033534 12.251304 -2.160753 -17.457056 15.194067 8.573666 -10.227893 2.136123 24.903441 10.174460 9.482504 58.773554 4.658699 19.937287 -1.177146 25.224781 15.834022 -5.712224 5.917344 2.641438 
2.313897 0.690425 0.991685 -74.274105 -0.396815 87.091159 -2.182840 -3.090117 3.630520 -0.044749 -15.200377 -0.093399 0.111763 4.478793 -7.841965 0.000000 -0.000000 0.000000 1.045194 -3.514930 4.397071 -5.193422 -2.810929 4.376505 1.811256 -10.875641 -11.789589 0.000000 -0.000000 0.000000 0.086847 3.446347 8.481840 -3.051812 0.280006 -0.735815 0.283682 2.414400 -2.152334 -2.537232 27.070346 -8.767901 -4.229468 25.473659 -6.810827 -28.630748 -8.845434 1.933589 -50.611409 -5.985593 12.229471 -2.188189 -17.647498 15.369148 8.415484 -10.365114 2.003935 24.914579 10.090542 9.446541 58.695030 4.587708 19.830366 -1.222927 25.330697 15.870495 -5.506153 5.849746 2.693240 
2.314804 0.690256 0.991632 -74.621433 -0.437413 87.116376 -2.258891 -3.186183 3.558501 -0.147065 -14.964307 -0.022301 0.038541 4.571149 -7.770530 0.000000 -0.000000 0.000000 0.938621 -3.229381 4.157383 -5.140672 -2.818033 4.650040 1.740005 -10.795719 -11.832904 0.000000 -0.000000 0.000000 0.274474 3.501644 8.902874 -3.181111 0.457472 -0.994329 0.223225 2.466841 -2.150931 -2.644847 26.969408 -8.882279 -4.354701 25.481547 -6.805599 -28.738810 -8.948797 1.942302 -50.596204 -5.951912 12.145160 -1.969516 -17.607839 15.162424 8.075955 -10.589665 2.118085 24.989376 10.348162 9.640133 58.613391 4.539253 19.814204 -1.465452 25.489042 15.684649 -5.414697 5.910822 2.586503 
2.313949 0.689858 0.991630 -74.351633 -0.409215 87.241836 -2.188329 -3.243017 3.367732 -0.179482 -14.995908 0.130681 0.240361 4.489555 -7.951569 0.000000 -0.000000 0.000000 0.897541 -3.508894 4.203879 -5.040582 -2.769475 4.411650 1.805544 -10.853345 -11.742308 0.000000 -0.000000 0.000000 0.198555 3.517903 8.404897 -3.022698 0.270987 -0.519559 0.280771 2.317354 -2.119445 -2.672219 26.958564 -8.772959 -4.539607 25.624941 -7.129826 -28.625973 -8.846994 2.051377 -50.639923 -6.084319 12.209307 -1.959495 -17.755263 15.318242 7.782369 -10.509972 1.567953 24.872058 10.120496 9.551549 58.558845 4.883877 19.808498 -1.203124 25.257105 15.907136 -4.969440 5.729413 2.818583 
2.314103 0.689223 0.991666 -74.442723 -0.520598 87.066504 -2.464284 -3.303323 3.673826 0.032371 -15.109526 -0.053925 0.079553 4.562704 -7.751288 0.000000 -0.000000 0.000000 0.734951 -3.221093 4.355643 -5.049040 -2.900417 4.559857 1.808199 -10.962798 -11.809242 0.000000 -0.000000 0.000000 0.227417 3.403556 8.812646 -3.078896 0.329724 -0.602786 0.274453 2.407656 -2.059138 -2.626187 26.926813 -8.788972 -4.633362 25.513883 -7.088686 -28.474716 -8.863046 1.918727 -50.757061 -6.199598 12.236577 -1.996698 -17.752594 15.505503 7.299280 -10.370825 1.438382 24.799502 10.255982 9.497890 58.642596 4.813835 19.865106 -1.445663 25.285137 15.747300 -5.042992 5.772870 2.674946 
2.313914 0.688957 0.991885 -74.458647 -0.506565 87.055453 -2.456231 -3.284310 3.603887 -0.070379 -15.068730 0.201972 0.297008 4.623148 -7.982377 0.000000 -0.000000 0.000000 0.725639 -3.264733 4.380556 -5.009993 -2.782277 4.587517 1.771690 -11.007254 -11.851123 0.000000 -0.000000 0.000000 0.303819 3.421852 8.787083 -3.073902 0.330036 -0.547273 0.243251 2.334686 -2.001208 -2.572756 26.821403 -8.807237 -4.576907 25.444601 -6.970512 -28.536951 -8.966222 1.975065 -50.684997 -6.233601 12.208644 -1.871500 -17.763517 15.533261 6.842440 -10.213677 1.400291 24.878446 10.215630 9.511549 58.542286 4.865995 19.761838 -1.570875 25.309938 15.741995 -4.557335 5.649131 3.040574 
